<svg version="1.1" id="Layer_1" xmlns="http://www.w3.org/2000/svg" xmlns:xlink="http://www.w3.org/1999/xlink" x="0px" y="0px"
	 width="100%" viewBox="0 0 512 512" enable-background="new 0 0 512 512" xml:space="preserve">
<path fill="#333940" opacity="1.000000" stroke="none" 
	d="
M513.000000,235.000000 
	C513.000000,248.020889 513.000000,261.041779 512.658020,274.486786 
	C510.662750,273.558533 508.878662,272.337067 507.375092,270.834839 
	C457.080902,220.586655 406.822632,170.302551 356.502716,120.080215 
	C354.813660,118.394463 352.541260,117.293228 350.302063,115.722359 
	C334.993256,93.698311 314.284973,82.383560 287.156830,81.538170 
	C287.156830,89.977707 287.110931,97.901062 287.236298,105.821724 
	C287.247375,106.522278 288.376007,107.205139 289.027740,108.245453 
	C289.696075,109.544724 290.182465,110.634018 290.969269,111.424141 
	C304.742981,125.255928 318.537262,139.067459 332.390198,152.819778 
	C333.381073,153.803467 334.860352,154.295212 336.259033,155.397690 
	C336.305023,156.848648 336.204498,157.917618 335.754761,158.951843 
	C333.860077,157.700470 332.174072,156.624832 330.790405,155.245880 
	C312.157074,136.676117 293.581207,118.048714 274.955170,99.471619 
	C269.066711,93.598618 263.071960,87.832161 256.823914,81.711052 
	C237.334976,81.432045 218.147980,81.458923 198.497925,81.444489 
	C187.922424,81.593826 177.809982,81.784485 167.406952,82.106094 
	C153.402664,96.057251 139.688934,109.877441 125.786705,124.081894 
	C125.533783,125.126854 125.413170,125.787544 125.412971,126.448265 
	C125.401276,165.365311 125.393631,204.282349 125.422592,243.199371 
	C125.423553,244.488342 125.805450,245.777023 126.171967,247.351791 
	C137.755707,259.123749 149.161041,270.625977 160.630859,282.063568 
	C161.508682,282.938904 162.841949,283.357513 163.845596,284.300598 
	C151.084381,297.311890 138.441071,310.010986 126.317871,322.187683 
	C132.394547,328.648987 138.193604,334.815125 144.148865,341.276123 
	C150.385910,347.729553 156.421509,353.934174 162.594543,359.998871 
	C163.561523,360.948853 165.153122,361.263031 166.685730,362.116272 
	C172.858047,376.284515 182.646759,386.961426 194.973145,395.912018 
	C196.302094,397.976746 197.396118,399.852234 198.879730,401.338898 
	C232.966019,435.494385 267.102844,469.599457 301.188385,503.755676 
	C302.668945,505.239288 303.751007,507.120667 304.606873,508.899170 
	C299.873566,509.655518 295.550171,510.318024 291.230988,511.006561 
	C287.151733,511.656830 283.076813,512.334412 279.000000,513.000000 
	C264.645782,513.000000 250.291550,513.000000 235.292648,512.606201 
	C230.736099,511.809631 226.775726,511.668915 222.921341,510.955475 
	C210.988831,508.746796 198.935699,506.931213 187.223450,503.846497 
	C165.099594,498.019592 144.055328,489.192780 124.803986,476.815216 
	C112.532051,468.925079 100.896713,459.959503 89.480911,450.843750 
	C73.570305,438.138794 60.141991,422.909363 48.254368,406.463959 
	C34.945183,388.051910 24.237150,368.075531 16.437069,346.728577 
	C9.879509,328.782135 4.940881,310.344971 2.961510,291.227814 
	C2.537031,287.128113 1.665561,283.074738 1.000001,279.000000 
	C1.000000,264.645782 1.000000,250.291550 1.393843,235.292633 
	C2.190401,230.736084 2.331135,226.775711 3.044573,222.921356 
	C5.253270,210.988831 7.068766,198.935684 10.153469,187.223434 
	C15.980335,165.099548 24.807247,144.055313 37.184776,124.803925 
	C45.074924,112.532005 54.040531,100.896690 63.156311,89.480911 
	C75.861298,73.570328 91.090660,60.141937 107.536079,48.254337 
	C125.948120,34.945164 145.924484,24.237150 167.271439,16.437067 
	C185.217880,9.879520 203.655045,4.940873 222.772186,2.961511 
	C226.871872,2.537036 230.925278,1.665561 235.000000,1.000001 
	C249.354233,1.000000 263.708466,1.000000 278.707367,1.393834 
	C283.263947,2.190389 287.224335,2.331130 291.078705,3.044572 
	C303.011230,5.253270 315.064423,7.068748 326.776672,10.153471 
	C348.900543,15.980375 369.944763,24.807291 389.196136,37.184807 
	C401.468079,45.074940 413.103363,54.040562 424.519165,63.156353 
	C440.429718,75.861366 453.858124,91.090683 465.745697,107.536148 
	C479.054810,125.948196 489.762848,145.924515 497.562927,167.271439 
	C504.120483,185.217896 509.059082,203.655060 511.038452,222.772202 
	C511.462921,226.871872 512.334412,230.925278 513.000000,235.000000 
z"/>
<path fill="#23272B" opacity="1.000000" stroke="none" 
	d="
M257.125854,82.016945 
	C263.071960,87.832161 269.066711,93.598618 274.955170,99.471619 
	C293.581207,118.048714 312.157074,136.676117 330.790405,155.245880 
	C332.174072,156.624832 333.860077,157.700470 335.880737,159.394501 
	C336.355957,162.933578 336.355957,165.995285 336.355957,169.057007 
	C335.987854,169.224228 335.619751,169.391464 335.251648,169.558701 
	C330.357971,164.235397 325.464294,158.912094 320.924133,153.973358 
	C314.146729,160.744522 308.179352,166.706451 302.551453,172.329178 
	C318.156738,187.929169 334.019409,203.786469 349.287415,219.049301 
	C364.885803,203.476288 380.747742,187.640137 396.105560,172.307312 
	C390.512634,166.682999 384.591156,160.728287 377.500244,153.597610 
	C372.863220,158.557831 367.955994,163.807068 362.342316,169.812012 
	C363.537170,150.145935 360.884430,132.131607 350.540771,115.919533 
	C352.541260,117.293228 354.813660,118.394463 356.502716,120.080215 
	C406.822632,170.302551 457.080902,220.586655 507.375092,270.834839 
	C508.878662,272.337067 510.662750,273.558533 512.658020,274.955444 
	C513.000000,276.066681 513.000000,277.133331 512.601746,278.768066 
	C511.133881,287.427795 510.178528,295.536530 508.972870,303.607880 
	C505.601135,326.180695 498.173645,347.510925 488.374451,367.999023 
	C478.517487,388.607910 466.111816,407.567505 450.884735,424.722931 
	C437.175201,440.168610 422.274292,454.152435 405.468475,466.207397 
	C387.327667,479.219849 367.893066,489.852966 346.943970,497.286316 
	C333.320312,502.120331 319.017334,505.039642 305.018677,508.816742 
	C303.751007,507.120667 302.668945,505.239288 301.188385,503.755676 
	C267.102844,469.599457 232.966019,435.494385 198.879730,401.338898 
	C197.396118,399.852234 196.302094,397.976746 195.312866,396.063293 
	C207.862167,403.297058 220.984207,407.592285 235.634674,407.214417 
	C235.634674,398.456909 235.634674,390.211212 235.634674,381.620697 
	C220.934128,380.781921 208.412674,375.558624 198.753555,364.355072 
	C189.188141,353.260162 185.656616,340.396515 186.732651,326.167877 
	C187.211853,325.847900 187.691040,325.527924 188.170242,325.207977 
	C193.035416,330.592560 197.900604,335.977142 202.213242,340.750214 
	C208.771530,334.180756 214.731689,328.210449 220.347794,322.584808 
	C204.840454,307.088379 188.988861,291.247925 173.093338,275.363586 
	C170.223190,278.074982 167.093338,281.031708 163.963501,283.988434 
	C162.841949,283.357513 161.508682,282.938904 160.630859,282.063568 
	C149.161041,270.625977 137.755707,259.123749 126.639122,247.326630 
	C150.943176,246.952759 174.942261,246.889984 199.411194,246.895142 
	C218.800507,246.963058 237.719971,246.963058 257.000244,246.963058 
	C257.000244,244.355377 256.998871,242.384140 257.000427,240.412903 
	C257.042053,187.614243 257.083954,134.815598 257.125854,82.016945 
M266.110291,284.452881 
	C266.110291,325.341278 266.110291,366.229645 266.110291,407.354950 
	C290.728882,407.354950 314.843445,407.354950 339.828033,407.744415 
	C359.050812,407.744415 378.273590,407.744415 397.568115,407.744415 
	C397.568115,352.149536 397.568115,297.296814 397.568115,242.163162 
	C377.853638,242.163162 358.421326,242.163162 338.062286,242.024002 
	C327.954590,242.215912 317.846893,242.407806 307.165833,242.952087 
	C293.643799,256.547791 280.121765,270.143494 266.110291,284.452881 
z"/>
<path fill="#FFFFFF" opacity="1.000000" stroke="none" 
	d="
M234.531342,1.000001 
	C230.925278,1.665561 226.871872,2.537036 222.772186,2.961511 
	C203.655045,4.940873 185.217880,9.879520 167.271439,16.437067 
	C145.924484,24.237150 125.948120,34.945164 107.536079,48.254337 
	C91.090660,60.141937 75.861298,73.570328 63.156311,89.480911 
	C54.040531,100.896690 45.074924,112.532005 37.184776,124.803925 
	C24.807247,144.055313 15.980335,165.099548 10.153469,187.223434 
	C7.068766,198.935684 5.253270,210.988831 3.044573,222.921356 
	C2.331135,226.775711 2.190401,230.736084 1.393843,234.823975 
	C1.000000,157.072952 1.000000,79.145912 1.000000,1.000000 
	C78.687424,1.000000 156.375061,1.000000 234.531342,1.000001 
z"/>
<path fill="#FFFFFF" opacity="1.000000" stroke="none" 
	d="
M304.606873,508.899170 
	C319.017334,505.039642 333.320312,502.120331 346.943970,497.286316 
	C367.893066,489.852966 387.327667,479.219849 405.468475,466.207397 
	C422.274292,454.152435 437.175201,440.168610 450.884735,424.722931 
	C466.111816,407.567505 478.517487,388.607910 488.374451,367.999023 
	C498.173645,347.510925 505.601135,326.180695 508.972870,303.607880 
	C510.178528,295.536530 511.133881,287.427795 512.601746,279.168060 
	C513.000000,356.927032 513.000000,434.854095 513.000000,513.000000 
	C435.312561,513.000000 357.624939,513.000000 279.468658,513.000000 
	C283.076813,512.334412 287.151733,511.656830 291.230988,511.006561 
	C295.550171,510.318024 299.873566,509.655518 304.606873,508.899170 
z"/>
<path fill="#FFFFFF" opacity="1.000000" stroke="none" 
	d="
M1.000001,279.468658 
	C1.665561,283.074738 2.537031,287.128113 2.961510,291.227814 
	C4.940881,310.344971 9.879509,328.782135 16.437069,346.728577 
	C24.237150,368.075531 34.945183,388.051910 48.254368,406.463959 
	C60.141991,422.909363 73.570305,438.138794 89.480911,450.843750 
	C100.896713,459.959503 112.532051,468.925079 124.803986,476.815216 
	C144.055328,489.192780 165.099594,498.019592 187.223450,503.846497 
	C198.935699,506.931213 210.988831,508.746796 222.921341,510.955475 
	C226.775726,511.668915 230.736099,511.809631 234.823990,512.606201 
	C157.072968,513.000000 79.145927,513.000000 1.000000,513.000000 
	C1.000000,435.312561 1.000000,357.624939 1.000001,279.468658 
z"/>
<path fill="#FFFFFF" opacity="1.000000" stroke="none" 
	d="
M513.000000,234.531342 
	C512.334412,230.925278 511.462921,226.871872 511.038452,222.772202 
	C509.059082,203.655060 504.120483,185.217896 497.562927,167.271439 
	C489.762848,145.924515 479.054810,125.948196 465.745697,107.536148 
	C453.858124,91.090683 440.429718,75.861366 424.519165,63.156353 
	C413.103363,54.040562 401.468079,45.074940 389.196136,37.184807 
	C369.944763,24.807291 348.900543,15.980375 326.776672,10.153471 
	C315.064423,7.068748 303.011230,5.253270 291.078705,3.044572 
	C287.224335,2.331130 283.263947,2.190389 279.176025,1.393834 
	C356.927032,1.000000 434.854095,1.000000 513.000000,1.000000 
	C513.000000,78.687424 513.000000,156.375061 513.000000,234.531342 
z"/>
<path fill="#FD6916" opacity="1.000000" stroke="none" 
	d="
M198.941345,246.827209 
	C174.942261,246.889984 150.943176,246.952759 126.476936,247.040680 
	C125.805450,245.777023 125.423553,244.488342 125.422592,243.199371 
	C125.393631,204.282349 125.401276,165.365311 125.412971,126.448265 
	C125.413170,125.787544 125.533783,125.126854 126.258278,124.132309 
	C140.477661,123.798462 154.036972,123.798462 167.697525,123.798462 
	C167.697525,109.269936 167.697525,95.622536 167.697525,81.975136 
	C177.809982,81.784485 187.922424,81.593826 198.499542,81.878998 
	C198.956573,137.178955 198.948959,192.003082 198.941345,246.827209 
z"/>
<path fill="#F14500" opacity="1.000000" stroke="none" 
	d="
M199.411194,246.895142 
	C198.948959,192.003082 198.956573,137.178955 198.962585,81.920319 
	C218.147980,81.458923 237.334976,81.432045 256.823914,81.711052 
	C257.083954,134.815598 257.042053,187.614243 257.000427,240.412903 
	C256.998871,242.384140 257.000244,244.355377 257.000244,246.963058 
	C237.719971,246.963058 218.800507,246.963058 199.411194,246.895142 
z"/>
<path fill="#F0F4FA" opacity="1.000000" stroke="none" 
	d="
M350.302063,115.722359 
	C360.884430,132.131607 363.537170,150.145935 362.342316,169.812012 
	C367.955994,163.807068 372.863220,158.557831 377.500244,153.597610 
	C384.591156,160.728287 390.512634,166.682999 396.105560,172.307312 
	C380.747742,187.640137 364.885803,203.476288 349.287415,219.049301 
	C334.019409,203.786469 318.156738,187.929169 302.551453,172.329178 
	C308.179352,166.706451 314.146729,160.744522 320.924133,153.973358 
	C325.464294,158.912094 330.357971,164.235397 335.251648,169.558701 
	C335.619751,169.391464 335.987854,169.224228 336.355957,169.057007 
	C336.355957,165.995285 336.355957,162.933578 336.229980,159.429230 
	C336.204498,157.917618 336.305023,156.848648 336.332336,154.960449 
	C334.823456,128.663559 313.226501,107.536499 288.985596,107.896225 
	C288.376007,107.205139 287.247375,106.522278 287.236298,105.821724 
	C287.110931,97.901062 287.156830,89.977707 287.156830,81.538170 
	C314.284973,82.383560 334.993256,93.698311 350.302063,115.722359 
z"/>
<path fill="#FDFDFD" opacity="1.000000" stroke="none" 
	d="
M163.845596,284.300598 
	C167.093338,281.031708 170.223190,278.074982 173.093338,275.363586 
	C188.988861,291.247925 204.840454,307.088379 220.347794,322.584808 
	C214.731689,328.210449 208.771530,334.180756 202.213242,340.750214 
	C197.900604,335.977142 193.035416,330.592560 188.170242,325.207977 
	C187.691040,325.527924 187.211853,325.847900 186.732651,326.167877 
	C185.656616,340.396515 189.188141,353.260162 198.753555,364.355072 
	C208.412674,375.558624 220.934128,380.781921 235.634674,381.620697 
	C235.634674,390.211212 235.634674,398.456909 235.634674,407.214417 
	C220.984207,407.592285 207.862167,403.297058 195.259445,395.692932 
	C182.646759,386.961426 172.858047,376.284515 166.577042,361.742950 
	C161.618790,349.816528 160.278625,337.931274 160.518875,325.767792 
	C160.090637,325.524719 159.662415,325.281647 159.234177,325.038574 
	C154.153671,330.352814 149.073181,335.667053 143.992676,340.981262 
	C138.193604,334.815125 132.394547,328.648987 126.317871,322.187683 
	C138.441071,310.010986 151.084381,297.311890 163.845596,284.300598 
z"/>
<path fill="#FFFBF9" opacity="1.000000" stroke="none" 
	d="
M167.406952,82.106094 
	C167.697525,95.622536 167.697525,109.269936 167.697525,123.798462 
	C154.036972,123.798462 140.477661,123.798462 126.446770,123.748047 
	C139.688934,109.877441 153.402664,96.057251 167.406952,82.106094 
z"/>
<path fill="#262A2E" opacity="1.000000" stroke="none" 
	d="
M289.027740,108.245445 
	C313.226501,107.536499 334.823456,128.663559 336.185822,154.578461 
	C334.860352,154.295212 333.381073,153.803467 332.390198,152.819778 
	C318.537262,139.067459 304.742981,125.255928 290.969269,111.424141 
	C290.182465,110.634018 289.696075,109.544724 289.027740,108.245445 
z"/>
<path fill="#292D31" opacity="1.000000" stroke="none" 
	d="
M144.148865,341.276123 
	C149.073181,335.667053 154.153671,330.352814 159.234177,325.038574 
	C159.662415,325.281647 160.090637,325.524719 160.518875,325.767792 
	C160.278625,337.931274 161.618790,349.816528 166.347198,361.497864 
	C165.153122,361.263031 163.561523,360.948853 162.594543,359.998871 
	C156.421509,353.934174 150.385910,347.729553 144.148865,341.276123 
z"/>
<path fill="#FFDA00" opacity="1.000000" stroke="none" 
	d="
M338.958038,407.354950 
	C314.843445,407.354950 290.728882,407.354950 266.110291,407.354950 
	C266.110291,366.229645 266.110291,325.341278 266.827576,284.253052 
	C280.963196,284.053192 294.381531,284.053192 307.739197,284.053192 
	C307.739197,269.825287 307.739197,256.212494 307.739197,242.599701 
	C317.846893,242.407806 327.954590,242.215912 338.529358,242.551651 
	C338.983643,297.837860 338.970856,352.596405 338.958038,407.354950 
z"/>
<path fill="#FDC100" opacity="1.000000" stroke="none" 
	d="
M339.393036,407.549683 
	C338.970856,352.596405 338.983643,297.837860 338.992737,242.621231 
	C358.421326,242.163162 377.853638,242.163162 397.568115,242.163162 
	C397.568115,297.296814 397.568115,352.149536 397.568115,407.744415 
	C378.273590,407.744415 359.050812,407.744415 339.393036,407.549683 
z"/>
<path fill="#FFFFFF" opacity="1.000000" stroke="none" 
	d="
M307.452515,242.775909 
	C307.739197,256.212494 307.739197,269.825287 307.739197,284.053192 
	C294.381531,284.053192 280.963196,284.053192 267.072266,283.896179 
	C280.121765,270.143494 293.643799,256.547791 307.452515,242.775909 
z"/>
</svg>