<?xml version="1.0" standalone="no"?>
<!DOCTYPE svg PUBLIC "-//W3C//DTD SVG 20010904//EN"
 "http://www.w3.org/TR/2001/REC-SVG-20010904/DTD/svg10.dtd">
<svg version="1.0" xmlns="http://www.w3.org/2000/svg"
 width="512.000000pt" height="512.000000pt" viewBox="0 0 512.000000 512.000000"
 preserveAspectRatio="xMidYMid meet">

<g transform="translate(0.000000,512.000000) scale(0.100000,-0.100000)"
fill="#000000" stroke="none">
<path d="M2345 5110 c-502 -46 -961 -227 -1365 -538 -126 -97 -363 -340 -461
-472 -121 -163 -171 -244 -254 -415 -125 -256 -191 -466 -236 -755 -33 -207
-33 -533 0 -740 45 -289 111 -499 236 -755 131 -268 269 -460 489 -681 221
-220 413 -358 681 -489 256 -125 466 -191 755 -236 207 -33 532 -33 740 0 184
29 287 52 425 98 775 255 1380 859 1636 1633 91 279 123 483 123 800 0 185 -4
251 -23 370 -45 289 -111 499 -236 755 -131 268 -269 460 -489 681 -221 220
-413 358 -681 489 -255 125 -470 192 -750 235 -157 24 -445 34 -590 20z m695
-816 c36 -8 108 -36 160 -61 81 -40 109 -61 190 -142 78 -78 104 -112 138
-181 54 -109 79 -211 88 -356 l7 -116 79 79 78 78 93 -93 92 -92 -240 -240
-240 -240 -240 240 -240 240 92 92 93 93 80 -80 80 -80 0 106 c0 114 -15 175
-66 269 -68 125 -250 240 -381 240 l-43 0 0 128 c0 71 2 131 5 134 8 8 102 -2
175 -18z m-1070 -809 l0 -825 -360 0 -360 0 0 622 0 623 202 202 203 203 157
0 158 0 0 -825z m2000 -1599 c0 -562 -3 -827 -10 -831 -6 -4 -303 -3 -660 1
l-650 7 0 616 0 616 207 207 208 208 452 0 453 0 0 -824z m-1857 -78 l-93 -93
-80 80 -80 80 0 -71 c0 -243 190 -456 430 -483 l55 -6 0 -130 0 -129 -55 2
c-88 5 -178 30 -280 80 -80 39 -109 60 -186 137 -143 141 -204 274 -226 488
l-11 108 -79 -78 -78 -78 -93 93 -92 92 240 240 240 240 240 -240 240 -240
-92 -92z"/>
</g>
</svg>
